HIERARCHY
ROOT root
{
	OFFSET	0	13.1	24.9
	CHANNELS 6  Xposition Yposition Zposition Xrotation Yrotation Zrotation
	JOINT spine_1
	{
		OFFSET	0	9.99999	0
		CHANNELS 3  Xrotation Yrotation Zrotation
		JOINT spine_2
		{
			OFFSET	0	112	-10
			CHANNELS 3  Xrotation Yrotation Zrotation
			JOINT spine_3
			{
				OFFSET	0	206.5	19.3
				CHANNELS 3  Xrotation Yrotation Zrotation
				JOINT spine_4
				{
					OFFSET	0	110.4	14.6
					CHANNELS 3  Xrotation Yrotation Zrotation
					JOINT neck_1
					{
						OFFSET	0	71.8	-50.3
						CHANNELS 3  Xrotation Yrotation Zrotation
						JOINT neck_2
						{
							OFFSET	0	86.2	-25.8
							CHANNELS 3  Xrotation Yrotation Zrotation
							JOINT head_ee
							{
								OFFSET	0	179.8	-8.7
								CHANNELS 3  Xrotation Yrotation Zrotation
								End Site
								{
									OFFSET	1	0	0
								}
							}
						}
					}
					JOINT left_clavicle
					{
						OFFSET	-43.2	22.4	-70.8
						CHANNELS 3  Xrotation Yrotation Zrotation
						JOINT left_shoulder
						{
							OFFSET	-93.9	-5.79999	48.7
							CHANNELS 3  Xrotation Yrotation Zrotation
							JOINT left_elbow
							{
								OFFSET	-291.4	-30.8	15.2
								CHANNELS 3  Xrotation Yrotation Zrotation
								JOINT left_lowarm_twist
								{
									OFFSET	-110.7	-3.89999	13.6
									CHANNELS 3  Xrotation Yrotation Zrotation
									JOINT left_hand
									{
										OFFSET	-110.7	-3.89999	13.6
										CHANNELS 3  Xrotation Yrotation Zrotation
										JOINT left_ee
										{
											OFFSET	-80.8	-5.10001	12.1
											CHANNELS 3  Xrotation Yrotation Zrotation
											End Site
											{
												OFFSET	1	0	0
											}
										}
									}
								}
							}
						}
					}
					JOINT right_clavicle
					{
						OFFSET	43.2	22.4	-70.8
						CHANNELS 3  Xrotation Yrotation Zrotation
						JOINT right_shoulder
						{
							OFFSET	93.9	-5.79999	48.7
							CHANNELS 3  Xrotation Yrotation Zrotation
							JOINT right_elbow
							{
								OFFSET	291.4	-30.8	15.2
								CHANNELS 3  Xrotation Yrotation Zrotation
								JOINT right_lowarm_twist
								{
									OFFSET	110.7	-3.89999	13.6
									CHANNELS 3  Xrotation Yrotation Zrotation
									JOINT right_hand
									{
										OFFSET	110.7	-3.89999	13.6
										CHANNELS 3  Xrotation Yrotation Zrotation
										JOINT right_ee
										{
											OFFSET	80.8	-5.10001	12.1
											CHANNELS 3  Xrotation Yrotation Zrotation
											End Site
											{
												OFFSET	1	0	0
											}
										}
									}
								}
							}
						}
					}
				}
			}
		}
	}
	JOINT left_hip
	{
		OFFSET	-82.8	-127.5	0.300001
		CHANNELS 3  Xrotation Yrotation Zrotation
		JOINT left_knee
		{
			OFFSET	-28.2	-396.7	2.2
			CHANNELS 3  Xrotation Yrotation Zrotation
			JOINT left_ankle
			{
				OFFSET	-11.7	-411.3	35.4
				CHANNELS 3  Xrotation Yrotation Zrotation
				JOINT left_toes
				{
					OFFSET	0	-60	-88.6
					CHANNELS 3  Xrotation Yrotation Zrotation
					JOINT left_foot_ee
					{
						OFFSET	-22.5	-16.5	-42.2
						CHANNELS 3  Xrotation Yrotation Zrotation
						End Site
						{
							OFFSET	1	0	0
						}
					}
				}
			}
		}
	}
	JOINT right_hip
	{
		OFFSET	82.8	-127.5	0.300001
		CHANNELS 3  Xrotation Yrotation Zrotation
		JOINT right_knee
		{
			OFFSET	28.2	-396.7	2.2
			CHANNELS 3  Xrotation Yrotation Zrotation
			JOINT right_ankle
			{
				OFFSET	11.7	-411.3	35.4
				CHANNELS 3  Xrotation Yrotation Zrotation
				JOINT right_toes
				{
					OFFSET	0	-60	-88.6
					CHANNELS 3  Xrotation Yrotation Zrotation
					JOINT right_foot_ee
					{
						OFFSET	22.5	-16.5	-42.2
						CHANNELS 3  Xrotation Yrotation Zrotation
						End Site
						{
							OFFSET	1	0	0
						}
					}
				}
			}
		}
	}
}
MOTION
Frames: 15
Frame Time: 0.02
547.458 714.185 -1693.53 -141.924 72.5194 149.038 2.32002 -0.753271 -2.73223 2.32398 -0.577955 -2.77458 2.35173 -0.0985226 -2.83238 2.34095 -0.544432 -2.78134 10.6375 -23.1519 2.51035 14.1798 -40.215 4.4757 -0.0 0.0 -0.0 12.8842 -21.1071 25.8923 -22.9423 -36.494 53.2785 1.03433 -27.1289 0.249558 11.9818 0.265671 -1.50473 2.74904 -12.3263 13.3931 -0.0 0.0 -0.0 3.02614 13.2639 -4.80425 -11.0775 -2.96366 -79.2142 0.631052 17.3596 -0.0963378 28.7253 -0.103991 3.62977 -3.56225 27.4407 36.4035 0.0 0.0 0.0 22.1245 -44.5945 5.58209 -1.24999 0.0494468 0.185451 9.14796 8.82463 -1.30424 -6.93416 0.0 0.0 -0.0 0.0 -0.0 26.3254 -14.713 1.61558 -15.1935 -0.321914 -2.30257 21.2801 -27.6787 3.08604 26.3697 -0.0 -0.0 0.0 0.0 0.0 
545.015 713.567 -1695.11 -137.3 73.8722 144.643 2.35171 -0.707581 -2.81277 2.35596 -0.527238 -2.85205 2.38186 -0.0368482 -2.9001 2.37047 -0.494213 -2.85795 9.69749 -22.6451 3.22402 13.1633 -40.3256 5.1056 -0.0 0.0 -0.0 12.7493 -21.9614 25.5084 -23.5777 -37.423 54.9633 0.832319 -22.4065 0.164855 11.6076 0.262163 -1.45706 2.7846 -13.5189 13.0863 -0.0 0.0 -0.0 1.98527 14.4528 -2.49756 -10.2328 -4.70352 -80.8506 0.722629 19.6958 -0.125444 29.0966 -0.0933925 3.67602 -3.65793 26.6645 36.903 0.0 0.0 0.0 21.3338 -45.8739 4.53624 -1.3026 0.051439 0.193279 13.8627 8.07583 -1.94275 -8.13812 0.0 0.0 -0.0 0.0 -0.0 26.0797 -11.7791 0.873263 -9.24925 -0.26891 -1.39246 25.4736 -28.4932 3.64694 28.2781 -0.0 -0.0 0.0 0.0 0.0 
531.924 708.428 -1701.76 -138.704 74.2838 146.451 2.71822 -0.656447 -2.70906 2.72218 -0.482799 -2.7453 2.74454 -0.0287303 -2.78725 2.73401 -0.468395 -2.74779 7.16552 -22.3959 3.02149 10.1719 -40.5444 4.06671 -0.0 0.0 -0.0 12.5561 -24.0829 24.8625 -24.1116 -38.2383 56.2312 0.7533 -20.4637 0.135974 11.6661 0.262732 -1.46451 2.57872 -13.0921 11.8679 -0.0 0.0 -0.0 1.1989 15.7156 -0.701787 -8.76237 -6.64463 -81.5126 0.764677 20.7466 -0.139978 29.8443 -0.0711428 3.76893 -3.79013 24.8426 37.3539 0.0 0.0 0.0 19.5713 -47.4549 3.46779 -1.32826 0.0524081 0.197099 17.3565 3.49963 -2.40318 -9.39668 0.0 0.0 -0.0 0.0 -0.0 25.1681 -9.43663 0.889096 -10.9906 -0.294215 -1.65846 29.0474 -27.71 4.06588 30.1685 -0.0 -0.0 0.0 0.0 0.0 
531.896 712.874 -1704.91 -141.33 74.0 148.688 2.65475 -0.633303 -2.58657 2.65835 -0.467488 -2.6216 2.67911 -0.030739 -2.66275 2.6695 -0.450738 -2.62453 6.37049 -22.0742 3.06977 9.17993 -40.2766 3.83968 -0.0 0.0 -0.0 12.5669 -23.7382 24.922 -23.4629 -38.4763 57.3807 0.75634 -20.5394 0.137039 11.6485 0.262562 -1.46227 2.57555 -13.0937 11.8454 -0.0 0.0 -0.0 1.21221 15.7819 -0.723092 -8.70741 -7.1676 -82.2908 0.683384 18.7025 -0.112537 29.8441 -0.0711481 3.76891 -3.80206 24.6111 37.3715 0.0 0.0 0.0 19.3085 -47.4292 3.43081 -1.32982 0.0524668 0.197331 16.5396 3.5673 -2.29803 -9.89613 0.0 0.0 -0.0 0.0 -0.0 25.3497 -7.75945 0.986407 -10.938 -0.29357 -1.65041 27.7283 -27.6698 3.90551 29.9108 -0.0 -0.0 0.0 0.0 0.0 
525.719 704.928 -1704.1 -140.36 73.6709 147.523 3.05968 -0.59305 -2.50301 3.06306 -0.432628 -2.53564 3.08121 -0.0284952 -2.5721 3.07224 -0.434221 -2.53537 5.84888 -21.8329 3.1442 8.53065 -40.0778 3.7407 -0.0 0.0 -0.0 12.5545 -23.8143 24.8857 -22.9444 -38.6675 57.7473 0.75852 -20.5936 0.137804 11.6362 0.262443 -1.46071 2.57352 -13.0967 11.8301 -0.0 0.0 -0.0 1.17625 16.0721 -0.616 -8.29509 -7.45806 -82.5882 0.625146 17.2068 -0.0945832 29.8428 -0.0711878 3.76875 -3.81179 24.3965 37.377 0.0 0.0 0.0 19.6456 -47.524 3.89236 -1.15218 0.0457237 0.170902 15.8664 3.42011 -2.21122 -10.3111 0.0 0.0 -0.0 0.0 -0.0 23.5008 -6.4787 0.440084 -11.0906 -0.295422 -1.67375 26.8022 -27.6576 3.79162 29.7324 -0.0 -0.0 0.0 0.0 0.0 
514.819 698.839 -1704.67 -139.826 74.4439 146.316 3.30592 -0.696881 -2.26711 3.30862 -0.551246 -2.30684 3.32985 -0.191994 -2.36397 3.3225 -0.562831 -2.30404 5.73443 -20.7977 4.77606 8.46928 -39.7093 5.64541 -0.0 0.0 -0.0 13.108 -25.4741 25.988 -21.8139 -38.3745 58.6912 0.758936 -20.6039 0.137951 12.7322 0.271767 -1.60039 2.39372 -12.4411 10.8963 -0.0 0.0 -0.0 1.00946 15.9822 -0.27054 -9.18249 -6.13709 -83.1736 0.56025 15.5112 -0.0763028 29.4585 -0.0827733 3.72103 -3.66884 24.3252 36.224 0.0 0.0 0.0 19.5302 -48.2554 4.24219 -1.03252 0.0411358 0.153113 15.3314 2.21387 -2.14514 -10.7994 0.0 0.0 -0.0 0.0 -0.0 23.3194 -4.90658 0.482886 -10.2393 -0.284289 -1.54361 26.1144 -28.1986 3.72001 28.2191 -0.0 -0.0 0.0 0.0 0.0 
505.161 701.455 -1708.13 -138.634 75.5135 144.686 3.63295 -0.768049 -2.20638 3.63544 -0.626131 -2.25076 3.65892 -0.287962 -2.31837 3.65201 -0.650401 -2.24387 5.08766 -20.5808 4.74734 7.6571 -39.4753 5.36941 -0.0 0.0 -0.0 13.6062 -26.162 27.0637 -20.669 -38.1643 58.3323 0.602714 -16.624 0.0880563 13.3952 0.276109 -1.68496 2.00446 -11.6261 8.60261 -0.0 0.0 -0.0 1.27161 15.9756 -0.829092 -9.77112 -4.97355 -83.6814 0.433358 12.1162 -0.0459921 28.6685 -0.105585 3.62269 -3.46718 24.5129 34.7191 0.0 0.0 0.0 17.6305 -48.7143 4.3747 -0.978243 0.0390419 0.145045 15.0984 1.35117 -2.11778 -11.5673 0.0 0.0 -0.0 0.0 -0.0 23.1497 -3.79188 0.743552 -9.71148 -0.276415 -1.46299 28.1467 -29.3293 4.00302 27.675 -0.0 -0.0 0.0 0.0 0.0 
489.065 707.209 -1715.83 -138.925 76.3241 144.111 3.83893 -0.810529 -2.10226 3.84113 -0.675147 -2.14954 3.86533 -0.359394 -2.2242 3.85912 -0.706074 -2.13959 4.70567 -20.0883 5.21005 7.18527 -39.1032 5.77072 -0.0 0.0 -0.0 14.3985 -28.0953 28.6568 -16.8572 -39.2599 57.7461 0.518813 -14.4135 0.065604 13.866 0.278598 -1.74504 1.62633 -10.0191 6.73505 -0.0 0.0 -0.0 2.62612 15.407 -3.76347 -12.0148 -4.27105 -83.0505 0.333135 9.37099 -0.0273038 27.8432 -0.127963 3.51965 -3.20522 24.733 32.7953 0.0 0.0 0.0 16.459 -49.0213 4.56655 -0.915653 0.0366182 0.135746 13.8545 1.57764 -1.95243 -12.8388 0.0 0.0 -0.0 0.0 -0.0 20.4685 -3.00103 -0.0997171 -10.2302 -0.284159 -1.5422 29.5031 -29.122 4.16163 27.294 -0.0 -0.0 0.0 0.0 0.0 
478.847 704.222 -1719.12 -139.366 77.1351 143.962 3.98473 -0.844011 -2.00768 3.98668 -0.714575 -2.05729 4.01125 -0.417133 -2.1375 4.00566 -0.749407 -2.04486 3.48993 -19.3346 5.75824 5.70224 -38.5156 5.96723 -0.0 0.0 -0.0 14.7555 -28.221 29.4758 -13.4074 -40.885 56.6782 0.519075 -14.4205 0.0656693 13.0432 0.273926 -1.64006 1.09813 -6.03706 4.85365 -0.0 0.0 -0.0 3.44161 14.9806 -5.53248 -12.915 -3.77443 -80.7282 0.342212 9.62161 -0.0288014 26.6482 -0.157731 3.3699 -2.72521 23.2826 28.7077 0.0 0.0 0.0 14.6304 -48.4572 4.40033 -0.91712 0.0366751 0.135964 15.5531 3.037 -2.17147 -15.6341 0.0 0.0 -0.0 0.0 -0.0 19.4085 -2.3065 0.144172 -10.3623 -0.286016 -1.56239 30.4613 -29.0402 4.27343 27.0231 -0.0 -0.0 0.0 0.0 0.0 
476.604 704.623 -1726.19 -144.72 76.6793 149.201 4.08465 -0.84459 -1.82206 4.08621 -0.726957 -1.87209 4.10904 -0.458851 -1.95513 4.10452 -0.761817 -1.85818 2.32496 -18.8761 6.02074 4.29428 -38.1547 5.8479 -0.0 0.0 -0.0 14.7011 -26.5956 29.5758 -12.4473 -41.4203 58.03 0.442176 -12.3552 0.0478611 11.2195 0.258197 -1.40765 0.645971 -2.24409 3.38933 -0.0 0.0 -0.0 4.02133 15.2647 -6.73977 -12.1321 -3.31044 -78.3136 0.347814 9.7761 -0.0297452 25.6833 -0.179479 3.24857 -2.24428 21.8834 24.6986 0.0 0.0 0.0 12.7736 -48.0435 4.2273 -1.56016 0.061088 0.231628 15.6843 4.12133 -2.18578 -17.6122 0.0 0.0 -0.0 0.0 -0.0 18.899 -1.82275 0.154037 -10.3952 -0.286472 -1.56742 31.0227 -28.1566 4.3121 26.2336 -0.0 -0.0 0.0 0.0 0.0 
477.914 705.453 -1729.52 -145.557 77.0419 149.758 4.09627 -0.75574 -1.80237 4.09785 -0.639539 -1.84679 4.11752 -0.376045 -1.91785 4.11302 -0.674164 -1.83443 2.32894 -18.8797 6.1454 4.32084 -38.2618 5.99727 -0.0 0.0 -0.0 14.4603 -26.7271 28.9907 -12.7467 -41.2942 58.3775 0.46929 -13.0874 0.0538318 11.2579 0.258604 -1.41254 0.666469 -2.28927 3.50838 -0.0 0.0 -0.0 4.08051 15.4276 -6.85215 -11.9366 -3.28731 -78.2075 0.347822 9.77633 -0.0297466 25.6828 -0.179492 3.2485 -2.24544 21.875 24.7037 0.0 0.0 0.0 12.8816 -48.0545 4.25174 -1.54653 0.0605822 0.229599 15.684 4.1224 -2.18573 -17.6152 0.0 0.0 -0.0 0.0 -0.0 17.8065 -1.85646 -0.32107 -10.0592 -0.281686 -1.51609 30.7955 -28.1836 4.2864 26.2338 -0.0 -0.0 0.0 0.0 0.0 
472.929 701.556 -1737.04 -143.526 78.1866 147.373 4.01371 -0.340539 -1.59306 4.01509 -0.238491 -1.6115 4.021 -0.00875308 -1.62902 4.0174 -0.265883 -1.6072 2.04464 -19.7092 4.76932 3.92352 -38.6612 4.28471 -0.0 0.0 -0.0 14.189 -26.8674 28.3351 -13.2619 -41.1735 58.3931 0.496334 -13.8135 0.0601226 10.8049 0.25359 -1.3549 0.704308 -1.65481 4.02621 -0.0 0.0 -0.0 3.82871 15.9023 -6.27591 -11.8344 -3.72589 -78.5771 0.257996 7.28331 -0.0164201 26.5478 -0.160088 3.3573 -1.66286 23.0467 21.0415 0.0 0.0 0.0 11.8752 -48.2106 3.63832 -1.7344 0.0675177 0.257596 17.6989 3.42493 -2.44712 -18.1842 0.0 0.0 -0.0 0.0 -0.0 17.7116 -2.30356 -0.431095 -9.60085 -0.274671 -1.44611 29.6885 -29.0377 4.1813 26.1935 -0.0 -0.0 0.0 0.0 0.0 
474.256 698.098 -1740.14 -144.063 79.1702 147.531 3.91816 -0.0509106 -1.45125 3.91933 0.0415296 -1.45155 3.91761 0.248571 -1.43072 3.91475 0.0195209 -1.45201 0.634476 -20.2427 3.80724 2.227 -39.1269 2.65724 -0.0 0.0 -0.0 13.2588 -26.2275 26.2488 -15.5894 -40.2086 60.3275 0.527269 -14.6384 0.0677249 9.58407 0.237808 -1.19976 0.934594 -3.67533 4.73813 -0.0 0.0 -0.0 3.8509 16.1959 -6.29799 -10.9871 -3.95939 -78.8369 0.200458 5.67107 -0.00992869 27.1886 -0.144656 3.43769 -1.35722 23.6451 19.1612 0.0 0.0 0.0 10.8429 -48.0509 3.17221 1.51079 -0.0651552 -0.222671 18.6656 3.23775 -2.57017 -20.7976 0.0 0.0 -0.0 0.0 -0.0 17.5507 -2.63229 -0.562346 -9.31442 -0.270003 -1.4024 28.8314 -28.6553 4.06673 25.6226 -0.0 -0.0 0.0 0.0 0.0 
470.206 710.001 -1743.87 -140.253 78.8021 143.619 3.86986 -0.00424754 -1.32133 3.87083 0.0798334 -1.31893 3.86845 0.268637 -1.29375 3.86612 0.0609611 -1.31993 -3.60824 -19.8768 1.04177 -3.02422 -37.1653 -1.86854 -0.0 0.0 -0.0 13.161 -25.5434 26.1028 -16.7461 -39.8178 62.5896 0.56238 -15.5673 0.0768735 8.42806 0.219819 -1.05319 1.16809 -5.67183 5.48131 -0.0 0.0 -0.0 3.86648 16.393 -6.31421 -10.6601 -4.15051 -79.1238 0.189523 5.36356 -0.00887732 27.6371 -0.133321 3.49386 -1.0463 25.3633 17.7113 0.0 0.0 0.0 9.99944 -47.8313 2.84073 3.74172 -0.17207 -0.548224 18.4623 6.54053 -2.5385 -23.3133 0.0 0.0 -0.0 0.0 -0.0 17.835 -2.23977 -0.722257 -9.12735 -0.266836 -1.37387 27.5678 -28.1129 3.89771 24.828 -0.0 -0.0 0.0 0.0 0.0 
468.081 706.206 -1745.48 -137.185 78.9339 140.329 3.85296 0.0272626 -1.23204 3.85379 0.105599 -1.22781 3.85107 0.281399 -1.19979 3.84907 0.0883985 -1.22917 -6.18613 -19.5399 -0.755958 -6.07639 -35.7102 -4.5505 -0.0 0.0 -0.0 12.9679 -25.472 25.6639 -17.8548 -39.4701 63.7101 0.584651 -16.1522 0.0829597 7.72629 0.207458 -0.964399 1.35808 -7.07872 6.1751 -0.0 0.0 -0.0 4.03099 16.2959 -6.67362 -11.0472 -4.33911 -79.2501 0.182606 5.1689 -0.00824239 27.9519 -0.125101 3.53324 -0.833035 26.596 16.7586 0.0 0.0 0.0 9.74014 -47.659 2.79489 5.18886 -0.248183 -0.757122 18.238 8.86382 -2.5109 -25.1822 0.0 0.0 -0.0 0.0 -0.0 17.9625 -1.92259 -0.915656 -8.96617 -0.264033 -1.3493 26.327 -27.7685 3.73557 24.0981 -0.0 -0.0 0.0 0.0 0.0 
